<svg xmlns="http://www.w3.org/2000/svg" viewBox="0 0 512 512">
  <defs>
    <linearGradient id="bg" x1="0%" y1="0%" x2="100%" y2="100%">
      <stop offset="0%" style="stop-color:#3b82f6"/>
      <stop offset="100%" style="stop-color:#1d4ed8"/>
    </linearGradient>
  </defs>
  
  <!-- Background rounded rectangle -->
  <rect x="16" y="16" width="480" height="480" rx="80" ry="80" fill="url(#bg)"/>
  
  <!-- Film strip frame -->
  <rect x="96" y="112" width="320" height="288" rx="16" ry="16" fill="none" stroke="#ffffff" stroke-width="24"/>
  
  <!-- Film perforations - left side -->
  <rect x="64" y="136" width="32" height="40" rx="6" fill="#ffffff"/>
  <rect x="64" y="196" width="32" height="40" rx="6" fill="#ffffff"/>
  <rect x="64" y="256" width="32" height="40" rx="6" fill="#ffffff"/>
  <rect x="64" y="316" width="32" height="40" rx="6" fill="#ffffff"/>
  
  <!-- Film perforations - right side -->
  <rect x="416" y="136" width="32" height="40" rx="6" fill="#ffffff"/>
  <rect x="416" y="196" width="32" height="40" rx="6" fill="#ffffff"/>
  <rect x="416" y="256" width="32" height="40" rx="6" fill="#ffffff"/>
  <rect x="416" y="316" width="32" height="40" rx="6" fill="#ffffff"/>
  
  <!-- Play triangle in center -->
  <polygon points="224,192 224,320 336,256" fill="#ffffff"/>
  
  <!-- Magnet/download indicator at bottom -->
  <path d="M232,408 L232,432 C232,454 250,472 272,472 C294,472 312,454 312,432 L312,408" 
        fill="none" stroke="#ffffff" stroke-width="20" stroke-linecap="round"/>
  <rect x="216" y="392" width="32" height="24" rx="4" fill="#ffffff"/>
  <rect x="296" y="392" width="32" height="24" rx="4" fill="#ffffff"/>
</svg>
